<?xml version="1.0" encoding="utf-8"?>
<!-- Generator: Adobe Illustrator 21.0.0, SVG Export Plug-In . SVG Version: 6.00 Build 0)  -->
<svg version="1.1" id="图层_1" xmlns="http://www.w3.org/2000/svg" xmlns:xlink="http://www.w3.org/1999/xlink" x="0px" y="0px"
	 viewBox="0 0 512 512" style="enable-background:new 0 0 512 512;" xml:space="preserve">
<style type="text/css">
	.st0{fill:#606060;}
</style>
<title>后台</title>
<g>
	<path class="st0" d="M490.1,326c-11,37.2-30.7,70.6-56.6,98.1c-7.5,7.9-19.5,9.7-29,4.2l-32.1-18.5c-10.7,8.1-29.3,18.9-41.7,24.1
		v37c0,11-7.5,20.5-18.2,23c-37.1,8.8-75.9,8.8-113,0c-10.7-2.5-18.2-12-18.2-23v-37c-12.4-5.2-31-16-41.7-24.1l-32.1,18.5
		c-9.5,5.5-21.5,3.7-29-4.2c-26-27.4-45.6-60.9-56.6-98.1c-3.1-10.4,1.4-21.6,10.9-27.1l32.1-18.5c-0.8-6.6-1.5-17.4-1.5-24.1
		c0-6.7,0.7-17.5,1.5-24.1l-32.1-18.5c-9.4-5.4-14-16.6-10.9-27.1c11-37.2,30.7-70.6,56.6-98.1c7.5-7.9,19.5-9.7,29-4.2l32.1,18.5
		c10.7-8.1,29.3-18.9,41.7-24.1v-37c0-11,7.5-20.5,18.2-23c37.1-8.8,75.9-8.8,113,0c10.7,2.5,18.2,12,18.2,23v37
		c12.4,5.2,31,16,41.7,24.1l32.1-18.5c9.5-5.5,21.5-3.7,29,4.2c26,27.4,45.6,60.9,56.6,98.1c3.1,10.4-1.4,21.6-10.9,27.1l-32.1,18.5
		c0.8,6.6,1.5,17.4,1.5,24.1c0,6.7-0.7,17.5-1.5,24.1l32.1,18.5C488.7,304.3,493.2,315.5,490.1,326z M458,323l-45.6-26.3
		c6.4-34.9,6.4-45.9,0-80.8l45.6-26.3c-9.1-27.5-23.8-53-43.3-74.8l-45.6,26.3c-27-23.1-36.5-28.6-69.9-40.4V48
		c-11.8-2.4-31.1-4.4-43.2-4.4c-12,0-31.4,2-43.2,4.4v52.7c-33.5,11.8-43,17.4-69.9,40.4l-45.6-26.3C77.9,136.5,63.1,162,54,189.5
		l45.6,26.3c-6.4,34.9-6.4,45.9,0,80.8L54,323c9.1,27.5,23.8,53,43.3,74.8l45.6-26.3c27.3,23.3,36.8,28.7,69.9,40.4v52.7
		C224.6,467,244,469,256,469c12,0,31.4-2,43.2-4.4v-52.7c33.9-12,43.4-17.7,69.9-40.4l45.6,26.3C434.2,376.1,448.9,350.6,458,323z
		 M350.6,256.3c0,52.1-42.4,94.5-94.5,94.5c-52.1,0-94.5-42.4-94.5-94.5c0-52.1,42.4-94.5,94.5-94.5
		C308.1,161.8,350.6,204.2,350.6,256.3z M319,256.3c0-34.7-28.3-63-63-63c-34.7,0-63,28.3-63,63c0,34.7,28.3,63,63,63
		C290.8,319.3,319,291,319,256.3z"/>
</g>
</svg>
